<?xml version="1.0" standalone="no"?>
<!DOCTYPE svg PUBLIC "-//W3C//DTD SVG 20010904//EN"
 "http://www.w3.org/TR/2001/REC-SVG-20010904/DTD/svg10.dtd">
<svg version="1.0" xmlns="http://www.w3.org/2000/svg"
 width="612.000000pt" height="612.000000pt" viewBox="0 0 612.000000 612.000000"
 preserveAspectRatio="xMidYMid meet">
<metadata>
Created by potrace 1.14, written by Peter Selinger 2001-2017
</metadata>
<g transform="translate(0.000000,612.000000) scale(0.100000,-0.100000)"
fill="#000000" stroke="none">
<path d="M2238 4084 c-5 -4 -8 -296 -8 -649 l0 -643 117 -28 c206 -49 315
-116 473 -291 82 -91 164 -162 174 -152 12 12 25 853 17 1039 -11 227 -24 292
-81 380 -69 107 -231 228 -380 284 -118 45 -294 79 -312 60z"/>
<path d="M3760 4083 c-205 -34 -439 -171 -554 -323 -68 -91 -85 -147 -97 -323
-10 -145 -7 -617 7 -964 l6 -151 30 10 c17 6 61 48 109 104 122 142 190 199
304 254 92 45 239 90 291 90 18 0 22 7 28 46 3 26 6 321 6 655 l0 609 -52 -1
c-29 -1 -64 -4 -78 -6z"/>
<path d="M1957 3443 c-4 -207 -7 -528 -7 -713 l0 -337 133 -6 c331 -16 560
-87 766 -236 46 -34 89 -61 94 -61 19 0 -3 95 -38 167 -83 169 -326 339 -635
444 -52 18 -101 37 -107 42 -10 7 -13 128 -13 543 l0 534 -93 0 -94 0 -6 -377z"/>
<path d="M3970 3358 c0 -255 -3 -500 -6 -544 l-7 -82 -82 -21 c-240 -64 -519
-247 -631 -415 -37 -57 -64 -130 -64 -178 0 -26 2 -28 21 -18 11 6 44 33 74
60 62 56 139 94 290 144 167 55 314 79 535 89 l55 2 6 115 c4 63 7 381 8 706
l1 592 -31 6 c-17 3 -62 6 -100 6 l-69 0 0 -462z"/>
<path d="M1717 3390 c-4 -51 -7 -376 -7 -722 l0 -628 588 0 587 0 -25 20 c-45
36 -183 98 -300 134 -184 57 -411 101 -632 121 l-68 7 -1 551 c-1 304 -1 562
-1 575 1 17 -4 22 -22 22 -13 0 -43 3 -68 6 l-45 6 -6 -92z"/>
<path d="M4260 2901 l0 -580 -57 -6 c-476 -53 -790 -135 -930 -243 -18 -13
-33 -28 -33 -33 0 -5 251 -9 578 -9 l579 0 6 308 c4 169 7 495 7 725 l0 417
-75 0 -75 0 0 -579z"/>
</g>
</svg>
